# xmcd
#
# Track frame offsets:
# 150
# 13095
# 30902
# 47250
# 60121
# 82658
# 97694
# 115297
# 132153
# 144492
# 159071
# 172425
#
# Disc length: 2540 seconds
#
#
# Revision: 2
# Processed by: cddbd v1.5.1PL2 Copyright (c) Steve Scherf et al.
# Submitted via: FreeRIP 2.944 
#
DISCID=7e09ea0c
DTITLE=Ex-Husbands, The - The Ex-Husbands
DYEAR=1996
DGENRE=Country
TTITLE0=All the Way From Abilene
TTITLE1=Ain't You Been a Cowboy Too Long
TTITLE2=Johnny Walker Redneck
TTITLE3=Run Until I Die
TTITLE4=Tequila, Salt and Lime
TTITLE5=Love You Always
TTITLE6=I Have a Ball
TTITLE7=Country Speed
TTITLE8=Torrential Rains
TTITLE9=Rodeo Man
TTITLE10=I Was Born to Wander
TTITLE11=Lovin' (Like It's the End of the World)
EXTD=
EXTT0=
EXTT1=
EXTT2=
EXTT3=
EXTT4=
EXTT5=
EXTT6=
EXTT7=
EXTT8=
EXTT9=
EXTT10=
EXTT11=
PLAYORDER=
